# xmcd CD database file
#
# Track frame offsets:
#	150
#	4178
#	41185
#	62290
#	90034
#	140450
#	197997
#	229579
#
# Disc length: 3410 seconds
#
# Revision: 0
# Processed by: cddbd v1.5.2PL0 Copyright (c) Steve Scherf et al.
# Submitted via: CDex 1.51
#
DISCID=5c0d5008
DTITLE=AALY Trio - Live In Sweden - 1996
DYEAR=1900
DGENRE=Jazz
TTITLE0=Radio Annoucement
TTITLE1=Fall To Grace
TTITLE2=Umea
TTITLE3=Coast To Coast
TTITLE4=Song For Che
TTITLE5=Out Of Holland Backwards
TTITLE6=Ghosts
TTITLE7=Spirits
EXTD=
EXTT0=
EXTT1=
EXTT2=
EXTT3=
EXTT4=
EXTT5=
EXTT6=
EXTT7=
PLAYORDER=
